<?xml version="1.0" encoding="utf-8"?>
<!-- Generator: Adobe Illustrator 22.0.0, SVG Export Plug-In . SVG Version: 6.00 Build 0)  -->
<svg version="1.1" id="图层_1" xmlns="http://www.w3.org/2000/svg" xmlns:xlink="http://www.w3.org/1999/xlink" x="0px" y="0px"
	 viewBox="0 0 24 24" style="enable-background:new 0 0 24 24;" xml:space="preserve">
<style type="text/css">
	.st0{fill:#4285F4;}
</style>
<title>Avast</title>
<path class="st0" d="M10.3,3c1.4-0.9,3.3-0.6,4.2,0.8c0.1,0.1,0.2,0.3,0.2,0.4l7,14.8c1.5-2,2.2-4.4,2.3-6.9C24,5.5,18.7,0,12.1,0
	C5.5,0,0,5.3,0,11.9c0,2.5,0.8,5,2.2,7l0.3-0.1l4.6-1c0.1,0,0.2,0.1,0.1,0.2l-3.8,2.2c2.2,2.3,5.3,3.6,8.5,3.7
	c3.8,0,7.1-1.7,9.3-4.4L9.8,7.6C8.7,6.4,8.7,4.4,9.9,3.3C10,3.2,10.2,3.1,10.3,3L10.3,3z M12.4,16.6l-7.4,0.6
	c-0.7,0.1-1.3-0.5-1.4-1.2c-0.1-0.7,0.5-1.3,1.2-1.4c0.1,0,0.3,0,0.4,0l7.2,1.7C12.6,16.4,12.6,16.6,12.4,16.6z M9,10.1l8.9,7.2
	c0.1,0.1,0,0.2-0.1,0.2L7.1,13.5c-1-0.4-1.5-1.5-1.1-2.5s1.5-1.5,2.5-1.1C8.7,9.9,8.9,10,9,10.1L9,10.1z"/>
</svg>
