<?xml version="1.0" encoding="utf-8"?>
<!-- Generator: Adobe Illustrator 22.0.0, SVG Export Plug-In . SVG Version: 6.00 Build 0)  -->
<svg version="1.1" id="图层_1" xmlns="http://www.w3.org/2000/svg" xmlns:xlink="http://www.w3.org/1999/xlink" x="0px" y="0px"
	 viewBox="0 0 24 24" style="enable-background:new 0 0 24 24;" xml:space="preserve">
<style type="text/css">
	.st0{fill:#FF3621;}
</style>
<title>Databricks</title>
<path class="st0" d="M0.9,14.2L12,20.4l9.9-5.5v2.2L12,22.7l-10.5-6L1,17v0.8L12,24l11-6.2v-4.3l-0.5-0.3l-10.5,6l-9.9-5.7v-2.2
	l9.9,5.5l11-6.2V6.3L22.5,6L12,12L2.6,6.7L12,1.4l7.8,4.4l0.7-0.4V4.8L12,0L0.9,6.3V7L12,13.2l9.9-5.6v2.3L12,15.5l-10.5-6L1,9.9
	L0.9,14.2z"/>
</svg>
