<svg id="图层_1" data-name="图层 1" xmlns="http://www.w3.org/2000/svg" viewBox="0 0 96.76 89.24"><defs><style>.cls-1{fill:#008837;opacity:0.8;}.cls-2{fill:none;stroke-width:2px;}.cls-2,.cls-3{stroke:#01a0c6;stroke-miterlimit:10;}.cls-3{fill:#01a0c6;}.cls-4{opacity:0.9;}.cls-5{fill:#278a2a;}.cls-6{fill:#69b923;}.cls-7{fill:#24a9b4;}.cls-8{fill:#1c78b4;}.cls-9{fill:#e31b8a;}.cls-10{fill:#d51083;}.cls-11{fill:#f40f65;}.cls-12{fill:#f44484;}.cls-13{fill:#f52b40;}.cls-14{fill:#f93f17;}.cls-15{fill:#f95f19;}.cls-16{fill:#f84f10;}.cls-17{fill:#f8300e;}</style></defs><title>Eline_icons</title><path class="cls-1" d="M289.82,193.68a31.18,31.18,0,1,0,30.9,31.18A31,31,0,0,0,289.82,193.68Zm0,6.47a24.71,24.71,0,1,1-24.5,24.71,24.6,24.6,0,0,1,24.5-24.71Zm-14.32,14v4.21a3.52,3.52,0,0,1,2.64,3.59v14.19a3.55,3.55,0,0,1-2.64,3.41V245h24.16v-9.35h-3.2a6,6,0,0,1-5.57,3.75h-5V221.86a3.52,3.52,0,0,1,2.64-3.47v-4.22Z" transform="translate(-243.63 -193.68)"/><rect class="cls-2" x="46.99" y="15.45" width="14.04" height="25.05" rx="2.83" ry="2.83"/><rect class="cls-3" x="49.03" y="29.97" width="9.79" height="7.83"/><rect class="cls-3" x="51.07" y="11.87" width="5.88" height="3.45"/><g class="cls-4"><path class="cls-5" d="M246.3,267.69a8.79,8.79,0,0,1-1.17-.85,11.52,11.52,0,0,1-.85-.82l-.23.17-.42-.26c0-.64,0-1.32,0-2l.44.18a6.34,6.34,0,0,0,.29.87,4.51,4.51,0,0,0,.45.87,4.72,4.72,0,0,0,.67.82,4.1,4.1,0,0,0,.92.69c.53.29.94.36,1.22.18s.4-.58.34-1.19a2.57,2.57,0,0,0-1-1.75c-.28-.21-.56-.41-.84-.58s-.55-.37-.82-.57a4.64,4.64,0,0,1-.93-.89,2.43,2.43,0,0,1-.47-1,1.43,1.43,0,0,1,.08-.88,1.8,1.8,0,0,1,.53-.68,3,3,0,0,1,.89-.45,3.22,3.22,0,0,1,1.11-.17,3.82,3.82,0,0,1,1,.17,3,3,0,0,1,1,.56l.28-.45h.48c-.11,1.1-.22,2.17-.32,3.21l-.46-.09c0-.35-.11-.71-.19-1.08a3.48,3.48,0,0,0-.34-.92,1.71,1.71,0,0,0-.6-.65,2,2,0,0,0-.95-.26,1.36,1.36,0,0,0-1.09.4,1.16,1.16,0,0,0-.31,1,1.89,1.89,0,0,0,.28.73,2.2,2.2,0,0,0,.59.59,9,9,0,0,0,.83.53,8.59,8.59,0,0,1,.77.5,4.51,4.51,0,0,1,1.1,1.13,3.06,3.06,0,0,1,.35,2.6,1.22,1.22,0,0,1-.58.7,1.44,1.44,0,0,1-.91.11A3.67,3.67,0,0,1,246.3,267.69Z" transform="translate(-243.63 -193.68)"/><path class="cls-6" d="M252.54,271.05a5.09,5.09,0,0,1-1.2-.82,6.49,6.49,0,0,1-.86-.92l-.27.37-.44-.23q.12-1.54.27-3.18l.45.16a9.26,9.26,0,0,0,.22,1.23,5.26,5.26,0,0,0,.41,1.15,3.83,3.83,0,0,0,.65,1,2.9,2.9,0,0,0,.93.69,1.07,1.07,0,0,0,1.3-.08,2.29,2.29,0,0,0,.43-1.71,3.8,3.8,0,0,0-.26-1.22,2.57,2.57,0,0,0-.69-1c-.28-.24-.56-.46-.83-.66a9.87,9.87,0,0,1-.82-.66,3.72,3.72,0,0,1-.89-1.13,3.48,3.48,0,0,1-.41-1.4,3.14,3.14,0,0,1,.16-1.28,3.22,3.22,0,0,1,.59-1,2.92,2.92,0,0,1,.93-.67,2.53,2.53,0,0,1,1.12-.25,2.52,2.52,0,0,1,2,.9l.31-.59h.47c-.16,1.41-.31,2.8-.46,4.16l-.47-.07c0-.45-.08-.92-.14-1.4a5.28,5.28,0,0,0-.29-1.2,2.12,2.12,0,0,0-.58-.82,1.48,1.48,0,0,0-.94-.32,1.27,1.27,0,0,0-1.13.6,2.2,2.2,0,0,0-.38,1.46,2.77,2.77,0,0,0,.23,1,2.24,2.24,0,0,0,.56.75,8.24,8.24,0,0,0,.83.63,6.87,6.87,0,0,1,.76.58,4.59,4.59,0,0,1,1.08,1.34,4,4,0,0,1,.42,1.73,4.54,4.54,0,0,1-.2,1.66,2.33,2.33,0,0,1-.64,1.06,1.6,1.6,0,0,1-1,.4A2.5,2.5,0,0,1,252.54,271.05Z" transform="translate(-243.63 -193.68)"/><path class="cls-7" d="M264,274.73l-.09.7-2.08-.71c-.34-1.53-.67-2.81-1-3.87s-.63-2.16-1-3.27l-.86-.18c-.17,1.45-.35,2.87-.52,4.27,0,.05,0,.11,0,.18V272a1.29,1.29,0,0,0,.06.4.68.68,0,0,0,.18.32,1.53,1.53,0,0,0,.34.25,3.18,3.18,0,0,0,.43.23c0,.21,0,.41-.08.62-1.14-.44-2.28-.91-3.41-1.39,0-.19,0-.37.07-.55l.4.1a.86.86,0,0,0,.37,0,.46.46,0,0,0,.31-.25,1.72,1.72,0,0,0,.13-.52c.37-3,.76-6.22,1.16-9.52a1.36,1.36,0,0,0,0-.2,1.34,1.34,0,0,0,0-.2,1.93,1.93,0,0,0-.06-.36.43.43,0,0,0-.18-.24,1.87,1.87,0,0,0-.37-.17,2.43,2.43,0,0,0-.39-.11l.07-.62,3.8.05a2.34,2.34,0,0,1,.93.18,2.08,2.08,0,0,1,.71.52,2.45,2.45,0,0,1,.51.92,4.48,4.48,0,0,1,.19,1.35,8,8,0,0,1-.19,1.85,4.71,4.71,0,0,1-.55,1.37,3.15,3.15,0,0,1-.83.87,2.77,2.77,0,0,1-1,.44l.77,2.64c.2.67.43,1.48.7,2.47a7.23,7.23,0,0,0,.36,1.11,3.54,3.54,0,0,0,.34.59,1.29,1.29,0,0,0,.38.35A2.39,2.39,0,0,0,264,274.73ZM262.27,263a3.32,3.32,0,0,0-.39-1.69,1.22,1.22,0,0,0-1.05-.63l-.95,0q-.36,3.08-.72,6l.83.16a1.51,1.51,0,0,0,1.62-.9A5.49,5.49,0,0,0,262.27,263Z" transform="translate(-243.63 -193.68)"/><path class="cls-8" d="M272.7,259.86c-.16,1.5-.33,3-.49,4.47l-.45,0a9.88,9.88,0,0,0-.27-2.33c-.16-.65-.36-1-.6-1.09a2.48,2.48,0,0,0-.44-.08,4.61,4.61,0,0,0-.56,0h-1.45q-.39,3.42-.78,6.77l1,.12a1.31,1.31,0,0,0,.63-.07,1.29,1.29,0,0,0,.55-.58,4.16,4.16,0,0,0,.31-.8,9.66,9.66,0,0,0,.27-1.2l.45,0c-.26,2.27-.51,4.53-.76,6.75l-.44-.08c0-.09,0-.21,0-.33s0-.27,0-.43,0-.49,0-.78a2.57,2.57,0,0,0-.09-.67,1.36,1.36,0,0,0-.41-.71,1.45,1.45,0,0,0-.61-.24l-1-.13q-.33,2.86-.66,5.66a1.11,1.11,0,0,0,0,.19,1.21,1.21,0,0,0,0,.19,1.66,1.66,0,0,0,.05.46,1.38,1.38,0,0,0,.18.39,1.93,1.93,0,0,0,.37.3,3.2,3.2,0,0,0,.46.25c0,.25-.07.5-.1.75-1.21-.34-2.41-.7-3.61-1.09l.09-.7.46.07a.92.92,0,0,0,.39,0,.66.66,0,0,0,.31-.36,2.51,2.51,0,0,0,.15-.64q.67-5.67,1.37-11.66a1.64,1.64,0,0,1,0-.22,1.77,1.77,0,0,0,0-.23,1.59,1.59,0,0,0,0-.4.64.64,0,0,0-.19-.31,1.2,1.2,0,0,0-.39-.26,2.36,2.36,0,0,0-.43-.16c0-.25.07-.5.1-.75Z" transform="translate(-243.63 -193.68)"/><path class="cls-8" d="M275.89,270.34c-.07.66-.15,1.32-.22,2-1.19-.15-2.37-.31-3.55-.5l.21-1.88C273.51,270.09,274.7,270.22,275.89,270.34Z" transform="translate(-243.63 -193.68)"/><path class="cls-9" d="M284.51,259.66c-.15,1.61-.31,3.23-.46,4.83h-.45a12.81,12.81,0,0,0-.27-2.5c-.16-.68-.36-1.06-.62-1.14a1.73,1.73,0,0,0-.44-.08,3.53,3.53,0,0,0-.58,0h-1.36q-.39,3.93-.79,7.81l1,.05a1,1,0,0,0,.69-.17,1.56,1.56,0,0,0,.44-.65,6.53,6.53,0,0,0,.34-1.13q.16-.74.24-1.23h.45q-.37,3.87-.75,7.69l-.45,0v-.36c0-.15,0-.3,0-.47,0-.34,0-.67,0-1a5.48,5.48,0,0,0-.08-.7,1.33,1.33,0,0,0-.36-.73,1.06,1.06,0,0,0-.61-.2l-1-.06c-.2,2-.4,3.9-.6,5.84,0,.22,0,.45-.06.71s0,.45,0,.59a1.64,1.64,0,0,0,.24,1,1.74,1.74,0,0,0,1.05.39,3.58,3.58,0,0,0,1.37,0,.9.9,0,0,0,.54-.43,11.18,11.18,0,0,0,.8-2c.31-.92.51-1.6.62-2l.43,0c-.24,2-.48,3.88-.73,5.81-2.37-.26-4.74-.62-7.09-1.06l.09-.86a3,3,0,0,0,.49,0,1.09,1.09,0,0,0,.41-.11.88.88,0,0,0,.32-.47,3.34,3.34,0,0,0,.16-.79q.71-6.79,1.42-13.78a2.32,2.32,0,0,1,0-.24c0-.09,0-.18,0-.26a2.43,2.43,0,0,0-.06-.49.72.72,0,0,0-.18-.36,1.18,1.18,0,0,0-.4-.31,1.78,1.78,0,0,0-.42-.16l.09-.89Z" transform="translate(-243.63 -193.68)"/><path class="cls-10" d="M287.8,257.93q-.8,8.7-1.6,17.26c0,.36-.07.72-.1,1.08a7.51,7.51,0,0,0,0,.88,2.88,2.88,0,0,0,.15,1.12.58.58,0,0,0,.5.34,2.29,2.29,0,0,0,.36-.05,1,1,0,0,0,.36-.15c0,.3-.06.61-.08.91a8.78,8.78,0,0,1-.84.67,1,1,0,0,1-.66.17.91.91,0,0,1-.74-.66,4,4,0,0,1-.26-1.47c0-.22,0-.45,0-.68s0-.54.07-.89q.71-7.43,1.41-15c0-.3,0-.51.05-.62s0-.26,0-.43a3.69,3.69,0,0,0-.08-.79.92.92,0,0,0-.21-.42.57.57,0,0,0-.32-.16l-.39-.09c0-.29.06-.58.08-.87l2.23-.39Z" transform="translate(-243.63 -193.68)"/><path class="cls-11" d="M291.14,278.55l-.09.93a5.58,5.58,0,0,1-.88.72,1.06,1.06,0,0,1-.57.19.84.84,0,0,1-.73-.63,3.92,3.92,0,0,1-.25-1.5c0-.22,0-.45,0-.69s0-.54.07-.91l.6-6.14c0-.33.06-.7.09-1.08s0-.72,0-1a3.75,3.75,0,0,0-.12-1.08.45.45,0,0,0-.46-.27,1.12,1.12,0,0,0-.35.1l-.33.18.09-.93a5.76,5.76,0,0,1,.83-.75,1.18,1.18,0,0,1,.59-.25.75.75,0,0,1,.72.56,4.15,4.15,0,0,1,.23,1.52c0,.18,0,.42,0,.72s0,.6-.06.9l-.6,6.17c0,.38-.07.75-.1,1.11s0,.66,0,.89a2.92,2.92,0,0,0,.16,1.14.54.54,0,0,0,.5.32,1.29,1.29,0,0,0,.33-.06A1,1,0,0,0,291.14,278.55Zm.29-18.63a4.52,4.52,0,0,1-.21,1.45c-.15.42-.33.63-.55.63s-.38-.18-.53-.57a3.73,3.73,0,0,1-.23-1.34,4,4,0,0,1,.21-1.4c.15-.4.32-.61.52-.61s.42.17.56.54A3.64,3.64,0,0,1,291.43,259.92Z" transform="translate(-243.63 -193.68)"/><path class="cls-12" d="M298.44,278.32l-.08.95q-.54.56-.84.81a1,1,0,0,1-.61.27c-.33,0-.57-.19-.74-.59a4,4,0,0,1-.26-1.5c0-.21,0-.45,0-.71s0-.57.07-.92l.54-5.49c0-.42.07-.81.09-1.15a6.48,6.48,0,0,0,0-.83,4.83,4.83,0,0,0-.2-1.54c-.13-.38-.32-.57-.57-.56s-.52.21-.82.61a7,7,0,0,0-.83,1.73c-.31,3.59-.63,7.18-.94,10.76h-1.13c.28-3.16.55-6.32.83-9.48,0-.24,0-.57.08-1s.05-.8,0-1.08a3.2,3.2,0,0,0-.12-1.09.43.43,0,0,0-.46-.27.82.82,0,0,0-.34.11l-.32.19c0-.31.06-.62.08-.94a6,6,0,0,1,.83-.77,1.16,1.16,0,0,1,.62-.26c.32,0,.55.19.69.61a6,6,0,0,1,.23,1.74h0a13.36,13.36,0,0,1,1.12-1.95,1.44,1.44,0,0,1,1.08-.66c.39,0,.69.25.91.78a5.72,5.72,0,0,1,.34,2.13c0,.17,0,.49,0,.94s-.05.89-.09,1.34l-.45,4.73c0,.31-.07.67-.1,1.08s0,.73,0,.95a2.94,2.94,0,0,0,.16,1.13.5.5,0,0,0,.5.28.84.84,0,0,0,.33-.11A1.26,1.26,0,0,0,298.44,278.32Z" transform="translate(-243.63 -193.68)"/><path class="cls-13" d="M304.24,267.92a8,8,0,0,1-.37,2.67,4.4,4.4,0,0,1-1.14,1.85,6.28,6.28,0,0,1-1.11.89,7.34,7.34,0,0,1-1.26.6,13.44,13.44,0,0,0,.39,3.5q.38,1.2,1.05,1.14a1.45,1.45,0,0,0,1.05-.83,10.31,10.31,0,0,0,.88-2.25l.35.57a10.24,10.24,0,0,1-1.16,2.95c-.48.76-1,1.16-1.49,1.21q-1.06.09-1.65-1.32a11.44,11.44,0,0,1-.61-4.08,25.36,25.36,0,0,1,.2-3.54,18.21,18.21,0,0,1,.65-3.1,7.48,7.48,0,0,1,1.07-2.25,1.9,1.9,0,0,1,1.41-.91,1.26,1.26,0,0,1,1.29.77A4.74,4.74,0,0,1,304.24,267.92Zm-1.11-.27a4.75,4.75,0,0,0-.08-.89,1.46,1.46,0,0,0-.17-.47.49.49,0,0,0-.23-.21,1.07,1.07,0,0,0-.25,0c-.48,0-.91.7-1.3,2a20.57,20.57,0,0,0-.72,4.84,6.52,6.52,0,0,0,.95-.48,2.81,2.81,0,0,0,.87-.77,4.63,4.63,0,0,0,.72-1.65A10.27,10.27,0,0,0,303.13,267.65Z" transform="translate(-243.63 -193.68)"/><path class="cls-14" d="M313.9,279.42a9.13,9.13,0,0,1-1.37,2.27,3.42,3.42,0,0,1-1.8,1.17,2.34,2.34,0,0,1-1.77-.3,4.53,4.53,0,0,1-1.6-1.81,12.75,12.75,0,0,1-1.16-3.35,24.56,24.56,0,0,1-.49-4.93,29.19,29.19,0,0,1,.31-4.8,21.82,21.82,0,0,1,1-4.18,9,9,0,0,1,1.67-2.92,3.11,3.11,0,0,1,2.19-1.17,2.37,2.37,0,0,1,1.81.67A5.35,5.35,0,0,1,314,262a12.18,12.18,0,0,1,.75,2.72,20.9,20.9,0,0,1,.27,3.23,18.38,18.38,0,0,1-.72,5.62c-.5,1.65-1.16,2.59-2,2.75a.81.81,0,0,1-.86-.42,3.17,3.17,0,0,1-.41-1.59l0,0a7.56,7.56,0,0,1-.63,1.73c-.24.45-.48.7-.73.74a.72.72,0,0,1-.5-.11,1.31,1.31,0,0,1-.46-.55,5.26,5.26,0,0,1-.33-1.17,12.68,12.68,0,0,1-.14-1.84,15.7,15.7,0,0,1,.17-2.34,18.9,18.9,0,0,1,.51-2.49,8.53,8.53,0,0,1,.85-2.12,1.65,1.65,0,0,1,1.15-1c.23,0,.42.11.6.38a2.75,2.75,0,0,1,.34,1.24h0l.24-1.57.89-.09q-.53,3.72-1,7.52c0,.24-.06.51-.08.81a6.39,6.39,0,0,0,0,.72,2.36,2.36,0,0,0,.16,1c.11.19.24.27.4.24.61-.12,1.12-.88,1.51-2.27a18.83,18.83,0,0,0,.56-5.28,17.44,17.44,0,0,0-.25-2.91,9.77,9.77,0,0,0-.7-2.34,4.22,4.22,0,0,0-1.12-1.55,2.07,2.07,0,0,0-1.52-.51,2.35,2.35,0,0,0-1.57.83,7.2,7.2,0,0,0-1.38,2.3,17,17,0,0,0-.95,3.62,27.86,27.86,0,0,0-.32,4.85,31.58,31.58,0,0,0,.36,4.51,12.75,12.75,0,0,0,.89,3.15,4,4,0,0,0,1.27,1.69,1.92,1.92,0,0,0,1.57.3,3.25,3.25,0,0,0,1.66-1,7.61,7.61,0,0,0,1.29-2C313.77,279,313.84,279.2,313.9,279.42ZM311.7,268a6.48,6.48,0,0,0-.28-1.6c-.13-.33-.31-.49-.55-.46s-.48.29-.69.79a10.45,10.45,0,0,0-.52,1.77c-.14.71-.25,1.48-.33,2.32s-.1,1.59-.09,2.29a6.91,6.91,0,0,0,.19,2c.11.3.23.43.36.41.33,0,.59-.37.79-1a15,15,0,0,0,.5-1.76C311.29,271.2,311.5,269.6,311.7,268Z" transform="translate(-243.63 -193.68)"/><path class="cls-15" d="M322.15,265.81a7.65,7.65,0,0,1-.32,2.32,6.62,6.62,0,0,1-.86,1.77A6.93,6.93,0,0,1,320,271c-.36.34-.75.7-1.18,1.08a8.5,8.5,0,0,0-1.07,1.15,6,6,0,0,0-.84,1.52c1.55-.39,3.09-.81,4.63-1.27l-.24,2.21q-2.68.9-5.43,1.62l.18-1.85a9.56,9.56,0,0,1,.41-1.13,9.73,9.73,0,0,1,.57-1.11c.19-.31.41-.62.65-.94s.5-.62.77-.92a14.22,14.22,0,0,0,.95-1.11,7.3,7.3,0,0,0,.68-1,5.74,5.74,0,0,0,.61-1.59,9.57,9.57,0,0,0,.17-1.88,4.56,4.56,0,0,0-.32-1.89c-.21-.45-.49-.66-.83-.62a1.22,1.22,0,0,0-.83.47,2.43,2.43,0,0,0-.48.85c0,.1,0,.25,0,.44s0,.41,0,.68a5.77,5.77,0,0,1-.2,1.76.87.87,0,0,1-.65.68.38.38,0,0,1-.46-.26,2.17,2.17,0,0,1-.13-.79,6.48,6.48,0,0,1,.81-3.13,4,4,0,0,1,.91-1.16,2.15,2.15,0,0,1,1.17-.53,1.67,1.67,0,0,1,1.63.86A5,5,0,0,1,322.15,265.81Z" transform="translate(-243.63 -193.68)"/><path class="cls-16" d="M329.52,265.33a15.79,15.79,0,0,1-.38,3,15.5,15.5,0,0,1-.86,2.72,10.94,10.94,0,0,1-1.24,2.24,3.64,3.64,0,0,1-1.54,1.29,1.28,1.28,0,0,1-1.77-.67,6.69,6.69,0,0,1-.63-3.21,19.15,19.15,0,0,1,.32-3.45,14,14,0,0,1,.87-2.92,6.51,6.51,0,0,1,1.29-2,2.71,2.71,0,0,1,1.57-.85,1.71,1.71,0,0,1,1.82,1A5.66,5.66,0,0,1,329.52,265.33Zm-1.21-.18a5.44,5.44,0,0,0-.3-2.24c-.22-.49-.54-.71-1-.65a1.75,1.75,0,0,0-1.17.93,8.05,8.05,0,0,0-.89,2.3,25.43,25.43,0,0,0-.66,5.33,6,6,0,0,0,.31,2.32q.32.76,1,.51a2.33,2.33,0,0,0,1.08-1.1,9.89,9.89,0,0,0,.91-2.44,21.83,21.83,0,0,0,.52-2.63C328.22,266.6,328.29,265.83,328.31,265.15Z" transform="translate(-243.63 -193.68)"/><path class="cls-17" d="M333.17,271c-.75.4-1.33.43-1.74.05a2.58,2.58,0,0,1-.56-2.05c0-.14,0-.28,0-.4s0-.28.06-.44q.72-4.39,1.49-8.51l0-.17c0-.05,0-.11,0-.16a1.05,1.05,0,0,0,0-.36.71.71,0,0,0-.16-.28.92.92,0,0,0-.34-.19l-.36-.08.12-.65,3.5-.17c0,.2-.09.39-.14.59a2.08,2.08,0,0,0-.43.11,3,3,0,0,0-.4.16.91.91,0,0,0-.35.4,2.7,2.7,0,0,0-.18.57q-.75,3.7-1.45,7.65c0,.17-.06.37-.09.58s0,.41-.05.6a4.47,4.47,0,0,0,0,.84,1.44,1.44,0,0,0,.22.62.68.68,0,0,0,.45.31,1.31,1.31,0,0,0,.75-.18,3.5,3.5,0,0,0,1.08-.84,6.91,6.91,0,0,0,.79-1.12,9.32,9.32,0,0,0,.54-1.16,7.81,7.81,0,0,0,.34-1.09l.6-2.42c.19-.77.39-1.6.62-2.48.11-.44.19-.79.24-1.06a5.87,5.87,0,0,0,.11-.65,1.07,1.07,0,0,0,0-.36.43.43,0,0,0-.09-.23.86.86,0,0,0-.48-.27,3.35,3.35,0,0,0-.51-.1c.05-.18.09-.37.14-.55l3.44-.16c-.05.16-.11.32-.16.47l-.52.13a1.75,1.75,0,0,0-.58.29,1.92,1.92,0,0,0-.52.84,12.75,12.75,0,0,0-.45,1.36c-.21.76-.41,1.54-.62,2.34s-.43,1.68-.67,2.65a11.9,11.9,0,0,1-.76,2.12,10.19,10.19,0,0,1-1,1.62,8,8,0,0,1-1,1.12A4.69,4.69,0,0,1,333.17,271Z" transform="translate(-243.63 -193.68)"/></g></svg>