<?xml version="1.0" encoding="utf-8"?>
<!-- Generator: Adobe Illustrator 22.0.0, SVG Export Plug-In . SVG Version: 6.00 Build 0)  -->
<svg version="1.1" id="图层_1" xmlns="http://www.w3.org/2000/svg" xmlns:xlink="http://www.w3.org/1999/xlink" x="0px" y="0px"
	 viewBox="0 0 68 68" enable-background="new 0 0 68 68" xml:space="preserve">
<g>
	<path opacity="0.6" fill="#01A0C6" d="M33.7,2.9c-17.1,0-30.9,14-30.9,31.2c0,17.2,13.8,31.2,30.9,31.2c17.1,0,30.9-14,30.9-31.2
		C64.6,16.9,50.7,2.9,33.7,2.9z M33.7,9.4c13.5,0,24.5,11.1,24.5,24.7c0,13.6-11,24.7-24.5,24.7c-13.5,0-24.5-11.1-24.5-24.7
		C9.2,20.5,20.1,9.4,33.7,9.4L33.7,9.4z M19.3,23.4v4.2c1.4,0.4,2.6,1.6,2.6,3.6v14.2c0,1.6-1.1,3-2.6,3.4v5.4h24.2v-9.4l-3.2,0
		c-0.9,2.2-3.1,3.7-5.6,3.7h-5V31.1c0-1.8,1.2-3.1,2.6-3.5v-4.2H19.3z"/>
	<g opacity="0.6">
		<g>
			<path fill="none" stroke="#38A22C" stroke-width="2" stroke-miterlimit="10" d="M34.5,40.6c0,1.6,1.3,2.8,2.8,2.8h8.4
				c1.6,0,2.8-1.3,2.8-2.8V21.2c0-1.6-1.3-2.8-2.8-2.8h-8.4c-1.6,0-2.8,1.3-2.8,2.8V40.6z"/>
		</g>
		<rect x="36.5" y="32.9" fill="#38A22C" stroke="#38A22C" stroke-miterlimit="10" width="9.8" height="7.8"/>
		<rect x="38.5" y="14.8" fill="#38A22C" stroke="#38A22C" stroke-miterlimit="10" width="5.9" height="3.5"/>
	</g>
	<g>
		<g>
			<path fill="#F0047F" d="M9.3,40.7c-0.1,0.7-0.2,1.4-0.3,2.1c-0.1,0-0.3,0-0.4,0c-0.1-0.4-0.2-0.8-0.3-1.1
				c-0.2-0.3-0.4-0.5-0.7-0.5c-0.1,0-0.3,0-0.4,0c-0.2,0-0.4,0-0.6,0c-0.5,0-0.9,0-1.4,0c-0.2,1-0.3,2.1-0.5,3
				c0.3,0,0.6,0.1,0.9,0.1c0.3,0,0.5,0,0.7,0c0.2,0,0.3-0.1,0.4-0.2c0.1-0.1,0.2-0.2,0.3-0.4c0.1-0.2,0.2-0.4,0.2-0.5
				c0.1,0,0.3,0,0.4,0c-0.2,1.1-0.3,2.1-0.5,3.1c-0.1,0-0.3,0-0.4-0.1c0,0,0-0.1,0-0.1c0-0.1,0-0.1,0-0.2c0-0.1,0-0.3-0.1-0.4
				c0-0.1-0.1-0.2-0.1-0.3c-0.1-0.2-0.2-0.3-0.4-0.3c-0.2-0.1-0.4-0.1-0.6-0.1c-0.3,0-0.6-0.1-0.9-0.1c-0.1,0.7-0.2,1.5-0.3,2.2
				c0,0.1,0,0.2,0,0.3c0,0.1,0,0.2,0,0.2c0,0.2,0.1,0.3,0.3,0.4c0.2,0.1,0.5,0.2,1,0.4c0.6,0.2,1.1,0.3,1.3,0.3c0.2,0,0.4,0,0.5-0.1
				c0.2-0.1,0.4-0.4,0.7-0.7c0.3-0.3,0.4-0.6,0.5-0.8c0.1,0,0.3,0,0.4,0.1c-0.2,0.8-0.3,1.6-0.5,2.4C6.2,48.6,4,48,1.8,47.3
				c0-0.1,0-0.2,0-0.3c0.1,0,0.3,0.1,0.5,0.1c0.2,0,0.3,0.1,0.4,0c0.1,0,0.2,0,0.3-0.1C3,47,3,46.9,3,46.8c0.2-1.6,0.5-3.2,0.8-5
				c0,0,0-0.1,0-0.1c0,0,0-0.1,0-0.1c0-0.1,0-0.1-0.1-0.2c0-0.1-0.1-0.1-0.2-0.1c-0.1,0-0.2-0.1-0.4-0.1c-0.2,0-0.3-0.1-0.4-0.1
				c0-0.1,0-0.2,0-0.3C4.9,40.7,7.1,40.7,9.3,40.7z"/>
			<path fill="#F0047F" d="M12.5,39.9c-0.4,2.7-0.8,5.3-1.2,7.9c0,0.2,0,0.3-0.1,0.5c0,0.2,0,0.3,0,0.4c0,0.2,0.1,0.4,0.2,0.5
				c0.1,0.1,0.3,0.2,0.5,0.2c0.1,0,0.2,0,0.3,0c0.2,0,0.3,0,0.3,0c0,0.1,0,0.3-0.1,0.4c-0.3,0.1-0.6,0.1-0.8,0.2c-0.2,0-0.4,0-0.6,0
				c-0.3-0.1-0.5-0.2-0.7-0.4c-0.2-0.2-0.3-0.4-0.3-0.7c0-0.1,0-0.2,0-0.3c0-0.1,0-0.2,0-0.4c0.3-2.1,0.7-4.3,1-6.6
				c0-0.1,0-0.2,0-0.3c0-0.1,0-0.1,0-0.2c0-0.2,0-0.3-0.1-0.4c-0.1-0.1-0.1-0.1-0.2-0.2c-0.1,0-0.2-0.1-0.3-0.1c-0.1,0-0.3,0-0.4,0
				c0-0.1,0-0.3,0.1-0.4C11,39.9,11.7,39.8,12.5,39.9C12.5,39.8,12.5,39.8,12.5,39.9z"/>
			<path fill="#F0047F" d="M16.1,50c0,0.1,0,0.3-0.1,0.4c-0.3,0.1-0.6,0.2-0.8,0.2c-0.2,0-0.4,0-0.5,0c-0.3-0.1-0.5-0.2-0.7-0.4
				c-0.2-0.2-0.3-0.5-0.3-0.7c0-0.1,0-0.2,0-0.3c0-0.1,0-0.3,0.1-0.4c0.2-0.9,0.3-1.9,0.5-2.9c0-0.2,0-0.3,0.1-0.5
				c0-0.2,0-0.3,0-0.5c0-0.3-0.1-0.4-0.1-0.5c-0.1-0.1-0.2-0.1-0.5-0.2c-0.1,0-0.2,0-0.3,0c-0.1,0-0.2,0-0.3,0.1
				c0-0.1,0-0.3,0.1-0.4c0.3-0.1,0.6-0.2,0.8-0.3c0.2-0.1,0.4-0.1,0.6-0.1c0.3,0,0.6,0.1,0.7,0.3c0.2,0.2,0.2,0.4,0.2,0.8
				c0,0.1,0,0.2,0,0.3c0,0.1,0,0.3-0.1,0.4c-0.2,1-0.3,2-0.5,2.9c0,0.2-0.1,0.4-0.1,0.5c0,0.2,0,0.3,0,0.4c0,0.3,0.1,0.5,0.2,0.6
				c0.1,0.1,0.3,0.2,0.5,0.2c0.1,0,0.2,0,0.3,0C15.9,50,16,50,16.1,50z M16.2,40.8c0,0.3-0.1,0.5-0.2,0.7c-0.1,0.2-0.3,0.3-0.5,0.3
				c-0.2,0-0.4-0.1-0.5-0.3c-0.2-0.2-0.2-0.4-0.2-0.7c0-0.3,0.1-0.5,0.2-0.7c0.1-0.2,0.3-0.3,0.5-0.3c0.2,0,0.4,0.1,0.6,0.3
				C16.1,40.3,16.2,40.5,16.2,40.8z"/>
			<path fill="#F0047F" d="M23.1,50.9c0,0.2-0.1,0.3-0.1,0.5c-0.3,0.2-0.6,0.3-0.8,0.3c-0.2,0.1-0.4,0.1-0.6,0.1
				c-0.3,0-0.5-0.2-0.7-0.4c-0.2-0.2-0.2-0.5-0.3-0.8c0-0.1,0-0.2,0-0.4c0-0.1,0-0.3,0.1-0.5c0.2-0.9,0.3-1.9,0.5-2.9
				c0-0.2,0.1-0.4,0.1-0.6c0-0.2,0-0.3,0-0.4c0-0.4-0.1-0.6-0.2-0.8c-0.1-0.2-0.3-0.3-0.6-0.3c-0.2,0-0.5,0.1-0.8,0.3
				c-0.3,0.2-0.6,0.5-0.8,0.8c-0.3,1.8-0.6,3.7-0.8,5.4c-0.4-0.1-0.7-0.1-1.1-0.2c0.2-1.5,0.5-3.1,0.7-4.7c0-0.1,0-0.3,0.1-0.5
				c0-0.2,0-0.4,0-0.5c0-0.3-0.1-0.5-0.1-0.6c-0.1-0.1-0.2-0.2-0.5-0.2c-0.1,0-0.2,0-0.3,0c-0.1,0-0.2,0.1-0.3,0.1
				c0-0.2,0-0.3,0.1-0.5c0.3-0.2,0.6-0.3,0.8-0.4c0.2-0.1,0.4-0.1,0.6-0.1c0.3,0,0.5,0.1,0.7,0.3c0.1,0.2,0.2,0.5,0.2,0.9
				c0,0,0,0,0,0c0.4-0.4,0.8-0.8,1.1-1c0.3-0.2,0.7-0.3,1.1-0.3c0.4,0,0.7,0.2,0.9,0.5c0.2,0.3,0.3,0.7,0.3,1.2c0,0.1,0,0.3,0,0.5
				c0,0.2,0,0.5-0.1,0.7c-0.1,0.8-0.3,1.7-0.4,2.5c0,0.2-0.1,0.4-0.1,0.6c0,0.2,0,0.4,0,0.5c0,0.3,0.1,0.5,0.2,0.6
				c0.1,0.1,0.3,0.2,0.5,0.2c0.1,0,0.2,0,0.3,0C23,50.9,23.1,50.9,23.1,50.9z"/>
			<path fill="#F0047F" d="M28.9,45.5c0,0.6-0.1,1.1-0.4,1.5c-0.3,0.4-0.6,0.8-1.1,1c-0.4,0.2-0.7,0.3-1.1,0.4
				c-0.4,0.1-0.8,0.2-1.2,0.2c0,0.9,0.1,1.5,0.4,2c0.2,0.5,0.6,0.7,1,0.8c0.4,0,0.7-0.1,1-0.3c0.3-0.3,0.6-0.7,0.9-1.2
				c0.1,0.1,0.2,0.2,0.3,0.4c-0.3,0.7-0.7,1.2-1.2,1.6c-0.5,0.4-0.9,0.5-1.4,0.5c-0.7-0.1-1.2-0.4-1.6-1c-0.4-0.6-0.6-1.4-0.6-2.3
				c0-0.7,0.1-1.3,0.2-1.9c0.1-0.6,0.4-1.2,0.7-1.7c0.3-0.5,0.6-0.9,1.1-1.2c0.4-0.3,0.9-0.5,1.4-0.5c0.6,0,1,0.2,1.3,0.5
				C28.7,44.5,28.8,45,28.9,45.5z M27.8,45.3c0-0.2,0-0.4-0.1-0.5c0-0.1-0.1-0.2-0.2-0.3c-0.1-0.1-0.1-0.1-0.2-0.1
				c-0.1,0-0.2,0-0.2,0c-0.5,0-0.9,0.4-1.3,1.1c-0.4,0.7-0.6,1.6-0.7,2.7c0.3,0,0.6-0.1,0.9-0.2c0.3-0.1,0.6-0.2,0.9-0.4
				c0.3-0.2,0.6-0.5,0.7-0.9C27.7,46.2,27.8,45.8,27.8,45.3z"/>
			<path fill="#F0047F" d="M38.2,53.6c-0.4,0.5-0.9,0.9-1.4,1.3c-0.5,0.3-1.1,0.5-1.8,0.5c-0.6,0-1.2-0.2-1.7-0.5
				c-0.6-0.3-1.1-0.8-1.5-1.4c-0.5-0.6-0.8-1.3-1.1-2.2c-0.3-0.9-0.4-1.9-0.4-3c0-1,0.1-1.9,0.4-2.9c0.2-0.9,0.6-1.8,1.1-2.5
				c0.5-0.7,1-1.3,1.7-1.8c0.7-0.5,1.4-0.7,2.2-0.7c0.7,0,1.3,0.1,1.8,0.4c0.5,0.3,0.9,0.7,1.2,1.3c0.3,0.5,0.6,1.1,0.7,1.8
				c0.2,0.7,0.2,1.4,0.2,2.2c0,1.4-0.3,2.6-0.8,3.7c-0.5,1-1.2,1.6-2,1.6c-0.3,0-0.6-0.1-0.8-0.4c-0.2-0.3-0.4-0.6-0.4-1.1
				c0,0,0,0,0,0c-0.2,0.4-0.4,0.8-0.6,1c-0.2,0.3-0.5,0.4-0.7,0.4c-0.2,0-0.3,0-0.5-0.1c-0.2-0.1-0.3-0.2-0.4-0.4
				c-0.1-0.2-0.2-0.4-0.3-0.8c-0.1-0.3-0.1-0.7-0.1-1.1c0-0.4,0.1-0.9,0.2-1.4c0.1-0.5,0.3-1,0.5-1.5c0.2-0.5,0.5-0.9,0.9-1.3
				c0.4-0.4,0.7-0.6,1.2-0.6c0.2,0,0.4,0.1,0.6,0.3c0.2,0.2,0.3,0.5,0.3,0.8c0,0,0,0,0,0c0.1-0.3,0.2-0.7,0.3-1c0.3,0,0.6,0,0.9,0
				c-0.4,1.6-0.8,3.2-1.1,4.8c0,0.1-0.1,0.3-0.1,0.5c0,0.2,0,0.3,0,0.5c0,0.3,0,0.5,0.2,0.7c0.1,0.1,0.2,0.2,0.4,0.2
				c0.6,0,1.1-0.4,1.5-1.3c0.4-0.9,0.6-2,0.6-3.4c0-0.7-0.1-1.4-0.2-1.9c-0.1-0.6-0.4-1.1-0.7-1.6c-0.3-0.4-0.6-0.8-1.1-1
				c-0.4-0.2-0.9-0.4-1.5-0.3c-0.5,0-1.1,0.2-1.6,0.5c-0.5,0.3-1,0.8-1.4,1.4c-0.4,0.6-0.7,1.3-1,2.2c-0.2,0.9-0.4,1.8-0.4,2.9
				c0,1,0.1,2,0.3,2.8c0.2,0.8,0.5,1.5,0.8,2c0.3,0.5,0.8,0.9,1.2,1.2c0.5,0.3,1,0.4,1.5,0.4c0.6,0,1.2-0.1,1.7-0.4
				c0.5-0.3,0.9-0.6,1.3-1.1C38.1,53.3,38.2,53.4,38.2,53.6z M36.2,46c-0.1-0.5-0.1-0.8-0.3-1c-0.1-0.2-0.3-0.3-0.5-0.3
				c-0.3,0-0.5,0.2-0.7,0.5c-0.2,0.3-0.4,0.7-0.5,1.1c-0.2,0.4-0.3,0.9-0.4,1.4c-0.1,0.5-0.1,1-0.1,1.4c0,0.6,0.1,1.1,0.2,1.3
				c0.1,0.2,0.2,0.3,0.4,0.3c0.3,0,0.6-0.2,0.8-0.5c0.2-0.4,0.4-0.7,0.5-1.1C35.8,48,36,47,36.2,46z"/>
			<path fill="#F0047F" d="M46.7,45.1c0,0.6-0.1,1.2-0.4,1.7c-0.2,0.5-0.5,0.9-0.9,1.2c-0.3,0.3-0.6,0.5-1,0.7
				c-0.4,0.2-0.8,0.4-1.2,0.6c-0.4,0.2-0.7,0.4-1.1,0.7c-0.3,0.3-0.6,0.6-0.9,0.9c1.6-0.1,3.1-0.2,4.7-0.3c-0.1,0.5-0.2,1-0.3,1.6
				c-1.8,0.2-3.6,0.3-5.5,0.4c0.1-0.4,0.1-0.8,0.2-1.2c0.1-0.2,0.3-0.5,0.4-0.7c0.2-0.2,0.4-0.5,0.6-0.7c0.2-0.2,0.4-0.4,0.7-0.6
				c0.2-0.2,0.5-0.4,0.8-0.6c0.4-0.2,0.7-0.5,1-0.7c0.3-0.2,0.5-0.4,0.7-0.7c0.3-0.3,0.5-0.7,0.6-1.1c0.1-0.4,0.2-0.8,0.2-1.3
				c0-0.6-0.1-1-0.3-1.4c-0.2-0.3-0.5-0.5-0.8-0.5c-0.3,0-0.6,0.1-0.8,0.3c-0.2,0.2-0.4,0.4-0.5,0.6c0,0.1,0,0.2,0,0.3
				c0,0.1,0,0.3,0,0.5c0,0.5-0.1,0.9-0.2,1.2c-0.1,0.3-0.4,0.4-0.7,0.4c-0.2,0-0.4-0.1-0.4-0.2c-0.1-0.1-0.1-0.3-0.1-0.6
				c0-0.4,0.1-0.7,0.2-1.1c0.1-0.4,0.4-0.7,0.6-1c0.3-0.3,0.6-0.6,0.9-0.8c0.4-0.2,0.8-0.3,1.2-0.3c0.7,0,1.2,0.2,1.6,0.7
				C46.5,43.5,46.7,44.2,46.7,45.1z"/>
			<path fill="#F0047F" d="M54.2,45.2c0,0.8-0.2,1.6-0.4,2.3c-0.2,0.8-0.5,1.5-0.9,2.1c-0.4,0.6-0.8,1.2-1.3,1.6
				c-0.5,0.4-1,0.7-1.6,0.7c-0.8,0.1-1.4-0.2-1.8-0.8c-0.4-0.6-0.6-1.4-0.6-2.5c0-0.9,0.1-1.7,0.4-2.5c0.2-0.8,0.5-1.5,0.9-2.1
				c0.4-0.6,0.8-1.1,1.3-1.5s1-0.6,1.6-0.6c0.8-0.1,1.4,0.2,1.8,0.9C54,43.5,54.2,44.3,54.2,45.2z M52.9,45c0-0.8-0.1-1.4-0.3-1.8
				c-0.2-0.4-0.5-0.6-1-0.5c-0.4,0-0.8,0.3-1.2,0.7c-0.4,0.4-0.7,1-0.9,1.7c-0.2,0.6-0.4,1.3-0.5,2c-0.1,0.7-0.2,1.4-0.2,1.9
				c0,0.8,0.1,1.4,0.3,1.8c0.2,0.4,0.5,0.6,1,0.5c0.4-0.1,0.8-0.3,1.1-0.7c0.3-0.4,0.7-1,0.9-1.8c0.2-0.7,0.4-1.3,0.5-2
				C52.8,46.1,52.9,45.5,52.9,45z"/>
			<path fill="#F0047F" d="M58,50.5c-0.8,0.2-1.4,0.1-1.8-0.3c-0.4-0.4-0.6-1-0.6-1.8c0-0.1,0-0.2,0-0.3c0-0.1,0-0.2,0.1-0.4
				c0.5-2.4,1-4.7,1.5-7c0,0,0-0.1,0-0.1c0,0,0-0.1,0-0.1c0-0.1,0-0.2,0-0.3c0-0.1-0.1-0.2-0.2-0.2c-0.1-0.1-0.2-0.1-0.3-0.2
				c-0.1,0-0.3-0.1-0.4-0.1c0-0.2,0.1-0.4,0.1-0.5c1.2-0.1,2.3-0.1,3.5-0.2c0,0.2-0.1,0.3-0.1,0.5c-0.1,0-0.3,0-0.4,0.1
				c-0.2,0.1-0.3,0.1-0.4,0.1c-0.2,0.1-0.3,0.2-0.4,0.3c-0.1,0.2-0.1,0.3-0.2,0.5c-0.5,2.1-0.9,4.3-1.4,6.4c0,0.1-0.1,0.3-0.1,0.5
				c0,0.2,0,0.3-0.1,0.5c0,0.3,0,0.5,0,0.7c0,0.2,0.1,0.4,0.2,0.6c0.1,0.2,0.3,0.3,0.5,0.4c0.2,0.1,0.5,0.1,0.8,0
				c0.4-0.1,0.8-0.3,1.1-0.5c0.3-0.3,0.6-0.5,0.8-0.8c0.2-0.3,0.4-0.6,0.5-1c0.1-0.3,0.3-0.7,0.3-1c0.2-0.8,0.4-1.5,0.5-2.2
				c0.2-0.7,0.4-1.5,0.6-2.3c0.1-0.4,0.2-0.7,0.2-1c0-0.3,0.1-0.5,0.1-0.6c0-0.1,0-0.3,0-0.3c0-0.1-0.1-0.2-0.1-0.2
				c-0.1-0.1-0.3-0.2-0.5-0.3c-0.2-0.1-0.4-0.1-0.5-0.1c0-0.2,0.1-0.3,0.1-0.5c1.1-0.1,2.3-0.1,3.4-0.2c0,0.2-0.1,0.3-0.1,0.5
				c-0.1,0-0.3,0-0.5,0.1c-0.2,0.1-0.4,0.2-0.6,0.3c-0.2,0.1-0.3,0.4-0.5,0.8c-0.2,0.4-0.3,0.8-0.4,1.3c-0.2,0.7-0.4,1.4-0.5,2.2
				c-0.2,0.7-0.4,1.5-0.6,2.4c-0.2,0.7-0.4,1.3-0.7,1.9c-0.3,0.5-0.6,0.9-1,1.3c-0.3,0.3-0.7,0.6-1,0.8C58.7,50.3,58.3,50.5,58,50.5
				z"/>
		</g>
	</g>
</g>
</svg>
